<mxfile host="app.diagrams.net" modified="2024-06-02T11:20:07.352Z" agent="Mozilla/5.0 (Macintosh; Intel Mac OS X 10_15_7) AppleWebKit/537.36 (KHTML, like Gecko) Chrome/125.0.0.0 Safari/537.36" etag="8iR5FLeal7s0_vf__rIH" version="24.4.13" type="github">
  <diagram id="R2lEEEUBdFMjLlhIrx00" name="Page-1">
    <mxGraphModel dx="1499" dy="717" grid="1" gridSize="10" guides="1" tooltips="1" connect="1" arrows="1" fold="1" page="1" pageScale="1" pageWidth="850" pageHeight="1100" math="0" shadow="0" extFonts="Permanent Marker^https://fonts.googleapis.com/css?family=Permanent+Marker">
      <root>
        <mxCell id="0" />
        <mxCell id="1" parent="0" />
        <mxCell id="C2hGD0ueLDp0XHPPCdm5-14" value="eai-batch" style="rounded=0;whiteSpace=wrap;html=1;" vertex="1" parent="1">
          <mxGeometry x="80" y="80" width="120" height="60" as="geometry" />
        </mxCell>
        <mxCell id="C2hGD0ueLDp0XHPPCdm5-15" value="tms-relay" style="rounded=0;whiteSpace=wrap;html=1;" vertex="1" parent="1">
          <mxGeometry x="80" y="260" width="120" height="60" as="geometry" />
        </mxCell>
        <mxCell id="C2hGD0ueLDp0XHPPCdm5-16" value="MQ" style="strokeWidth=2;html=1;shape=mxgraph.flowchart.database;whiteSpace=wrap;" vertex="1" parent="1">
          <mxGeometry x="250" y="260" width="60" height="60" as="geometry" />
        </mxCell>
        <mxCell id="C2hGD0ueLDp0XHPPCdm5-48" value="eai-online" style="rounded=0;whiteSpace=wrap;html=1;" vertex="1" parent="1">
          <mxGeometry x="80" y="170" width="120" height="60" as="geometry" />
        </mxCell>
        <mxCell id="C2hGD0ueLDp0XHPPCdm5-49" value="tms-integration&lt;br&gt;(batch)" style="rounded=0;whiteSpace=wrap;html=1;" vertex="1" parent="1">
          <mxGeometry x="365" y="80" width="120" height="60" as="geometry" />
        </mxCell>
        <mxCell id="C2hGD0ueLDp0XHPPCdm5-50" value="tms-integration&lt;br&gt;(online)" style="rounded=0;whiteSpace=wrap;html=1;" vertex="1" parent="1">
          <mxGeometry x="365" y="170" width="120" height="60" as="geometry" />
        </mxCell>
        <mxCell id="C2hGD0ueLDp0XHPPCdm5-51" value="tms-integration&lt;br&gt;(approve)" style="rounded=0;whiteSpace=wrap;html=1;" vertex="1" parent="1">
          <mxGeometry x="365" y="260" width="120" height="60" as="geometry" />
        </mxCell>
        <mxCell id="C2hGD0ueLDp0XHPPCdm5-52" value="DB" style="strokeWidth=2;html=1;shape=mxgraph.flowchart.database;whiteSpace=wrap;" vertex="1" parent="1">
          <mxGeometry x="250" y="130" width="60" height="60" as="geometry" />
        </mxCell>
        <mxCell id="C2hGD0ueLDp0XHPPCdm5-53" value="" style="endArrow=classic;html=1;rounded=0;exitX=1;exitY=0.5;exitDx=0;exitDy=0;entryX=0;entryY=0.5;entryDx=0;entryDy=0;entryPerimeter=0;" edge="1" parent="1" source="C2hGD0ueLDp0XHPPCdm5-14" target="C2hGD0ueLDp0XHPPCdm5-52">
          <mxGeometry width="50" height="50" relative="1" as="geometry">
            <mxPoint x="470" y="350" as="sourcePoint" />
            <mxPoint x="520" y="300" as="targetPoint" />
          </mxGeometry>
        </mxCell>
        <mxCell id="C2hGD0ueLDp0XHPPCdm5-54" value="" style="endArrow=classic;html=1;rounded=0;exitX=1;exitY=0.5;exitDx=0;exitDy=0;entryX=0;entryY=0.5;entryDx=0;entryDy=0;entryPerimeter=0;" edge="1" parent="1" source="C2hGD0ueLDp0XHPPCdm5-48" target="C2hGD0ueLDp0XHPPCdm5-52">
          <mxGeometry width="50" height="50" relative="1" as="geometry">
            <mxPoint x="210" y="120" as="sourcePoint" />
            <mxPoint x="260" y="170" as="targetPoint" />
          </mxGeometry>
        </mxCell>
        <mxCell id="C2hGD0ueLDp0XHPPCdm5-55" value="" style="endArrow=classic;html=1;rounded=0;exitX=1;exitY=0.5;exitDx=0;exitDy=0;entryX=0;entryY=0.5;entryDx=0;entryDy=0;entryPerimeter=0;" edge="1" parent="1" source="C2hGD0ueLDp0XHPPCdm5-15" target="C2hGD0ueLDp0XHPPCdm5-16">
          <mxGeometry width="50" height="50" relative="1" as="geometry">
            <mxPoint x="210" y="120" as="sourcePoint" />
            <mxPoint x="260" y="170" as="targetPoint" />
          </mxGeometry>
        </mxCell>
      </root>
    </mxGraphModel>
  </diagram>
</mxfile>
